<mxfile host="app.diagrams.net" agent="Mozilla/5.0 (Windows NT 10.0; Win64; x64) AppleWebKit/537.36 (KHTML, like Gecko) Chrome/140.0.0.0 Safari/537.36" version="28.2.3">
  <diagram name="Page-1" id="e7e014a7-5840-1c2e-5031-d8a46d1fe8dd">
    <mxGraphModel dx="1496" dy="814" grid="1" gridSize="10" guides="1" tooltips="1" connect="1" arrows="1" fold="1" page="1" pageScale="1" pageWidth="1169" pageHeight="826" background="none" math="0" shadow="0">
      <root>
        <mxCell id="0" />
        <mxCell id="1" parent="0" />
        <mxCell id="xuQDjXI8OIOSAmr1Oquf-49" value="Ambiente Cliente" style="swimlane;horizontal=0;whiteSpace=wrap;html=1;swimlaneLine=1;movable=1;resizable=1;rotatable=1;deletable=1;editable=1;locked=0;connectable=1;" vertex="1" parent="1">
          <mxGeometry x="25" y="150" width="1120" height="170" as="geometry" />
        </mxCell>
        <mxCell id="xuQDjXI8OIOSAmr1Oquf-56" style="edgeStyle=orthogonalEdgeStyle;rounded=0;orthogonalLoop=1;jettySize=auto;html=1;entryX=0;entryY=0.5;entryDx=0;entryDy=0;" edge="1" parent="xuQDjXI8OIOSAmr1Oquf-49" source="xuQDjXI8OIOSAmr1Oquf-52" target="xuQDjXI8OIOSAmr1Oquf-53">
          <mxGeometry relative="1" as="geometry" />
        </mxCell>
        <mxCell id="xuQDjXI8OIOSAmr1Oquf-52" value="Usuário envia a mensagem para o chatbot no telegram" style="rounded=0;whiteSpace=wrap;html=1;" vertex="1" parent="xuQDjXI8OIOSAmr1Oquf-49">
          <mxGeometry x="140" y="55" width="120" height="60" as="geometry" />
        </mxCell>
        <mxCell id="xuQDjXI8OIOSAmr1Oquf-53" value="Chatbot redireciona a mensagem para a API do telegram" style="rounded=0;whiteSpace=wrap;html=1;" vertex="1" parent="xuQDjXI8OIOSAmr1Oquf-49">
          <mxGeometry x="350" y="55" width="120" height="60" as="geometry" />
        </mxCell>
        <mxCell id="xuQDjXI8OIOSAmr1Oquf-76" value="Usuário recebe a resposta" style="rounded=0;whiteSpace=wrap;html=1;" vertex="1" parent="xuQDjXI8OIOSAmr1Oquf-49">
          <mxGeometry x="605" y="50" width="120" height="60" as="geometry" />
        </mxCell>
        <mxCell id="xuQDjXI8OIOSAmr1Oquf-50" value="Ambiente Web" style="swimlane;horizontal=0;whiteSpace=wrap;html=1;" vertex="1" parent="1">
          <mxGeometry x="25" y="330" width="1120" height="180" as="geometry" />
        </mxCell>
        <mxCell id="xuQDjXI8OIOSAmr1Oquf-58" style="edgeStyle=orthogonalEdgeStyle;rounded=0;orthogonalLoop=1;jettySize=auto;html=1;entryX=0;entryY=0.5;entryDx=0;entryDy=0;" edge="1" parent="xuQDjXI8OIOSAmr1Oquf-50" source="xuQDjXI8OIOSAmr1Oquf-54" target="xuQDjXI8OIOSAmr1Oquf-55">
          <mxGeometry relative="1" as="geometry" />
        </mxCell>
        <mxCell id="xuQDjXI8OIOSAmr1Oquf-54" value="API do telegram identifica que há um webhook configurado" style="rounded=0;whiteSpace=wrap;html=1;" vertex="1" parent="xuQDjXI8OIOSAmr1Oquf-50">
          <mxGeometry x="60" y="60" width="120" height="60" as="geometry" />
        </mxCell>
        <mxCell id="xuQDjXI8OIOSAmr1Oquf-60" style="edgeStyle=orthogonalEdgeStyle;rounded=0;orthogonalLoop=1;jettySize=auto;html=1;entryX=0;entryY=0.5;entryDx=0;entryDy=0;" edge="1" parent="xuQDjXI8OIOSAmr1Oquf-50" source="xuQDjXI8OIOSAmr1Oquf-55" target="xuQDjXI8OIOSAmr1Oquf-59">
          <mxGeometry relative="1" as="geometry" />
        </mxCell>
        <mxCell id="xuQDjXI8OIOSAmr1Oquf-55" value="Envia a mensagem para o webhook via HTTP" style="rounded=0;whiteSpace=wrap;html=1;" vertex="1" parent="xuQDjXI8OIOSAmr1Oquf-50">
          <mxGeometry x="260" y="60" width="120" height="60" as="geometry" />
        </mxCell>
        <mxCell id="xuQDjXI8OIOSAmr1Oquf-59" value="Webhook envia a mensagem para a API local" style="rounded=0;whiteSpace=wrap;html=1;" vertex="1" parent="xuQDjXI8OIOSAmr1Oquf-50">
          <mxGeometry x="450" y="60" width="120" height="60" as="geometry" />
        </mxCell>
        <mxCell id="xuQDjXI8OIOSAmr1Oquf-74" value="API do telegram envia a resposta para o Chat do Usuário" style="rounded=0;whiteSpace=wrap;html=1;" vertex="1" parent="xuQDjXI8OIOSAmr1Oquf-50">
          <mxGeometry x="605" y="60" width="120" height="60" as="geometry" />
        </mxCell>
        <mxCell id="xuQDjXI8OIOSAmr1Oquf-83" value="Gemini gera a resposta e retorna para a API" style="rounded=0;whiteSpace=wrap;html=1;" vertex="1" parent="xuQDjXI8OIOSAmr1Oquf-50">
          <mxGeometry x="770" y="60" width="120" height="60" as="geometry" />
        </mxCell>
        <mxCell id="xuQDjXI8OIOSAmr1Oquf-57" style="edgeStyle=orthogonalEdgeStyle;rounded=0;orthogonalLoop=1;jettySize=auto;html=1;entryX=0.5;entryY=0;entryDx=0;entryDy=0;exitX=0.5;exitY=1;exitDx=0;exitDy=0;" edge="1" parent="1" source="xuQDjXI8OIOSAmr1Oquf-53" target="xuQDjXI8OIOSAmr1Oquf-54">
          <mxGeometry relative="1" as="geometry">
            <Array as="points">
              <mxPoint x="435" y="300" />
              <mxPoint x="145" y="300" />
            </Array>
          </mxGeometry>
        </mxCell>
        <mxCell id="xuQDjXI8OIOSAmr1Oquf-51" value="Ambiente Localhost" style="swimlane;horizontal=0;whiteSpace=wrap;html=1;" vertex="1" parent="1">
          <mxGeometry x="25" y="520" width="1120" height="200" as="geometry" />
        </mxCell>
        <mxCell id="xuQDjXI8OIOSAmr1Oquf-63" style="edgeStyle=orthogonalEdgeStyle;rounded=0;orthogonalLoop=1;jettySize=auto;html=1;entryX=0;entryY=0.5;entryDx=0;entryDy=0;" edge="1" parent="xuQDjXI8OIOSAmr1Oquf-51" source="xuQDjXI8OIOSAmr1Oquf-61" target="xuQDjXI8OIOSAmr1Oquf-62">
          <mxGeometry relative="1" as="geometry" />
        </mxCell>
        <mxCell id="xuQDjXI8OIOSAmr1Oquf-65" style="edgeStyle=orthogonalEdgeStyle;rounded=0;orthogonalLoop=1;jettySize=auto;html=1;entryX=0;entryY=0.5;entryDx=0;entryDy=0;" edge="1" parent="xuQDjXI8OIOSAmr1Oquf-51" source="xuQDjXI8OIOSAmr1Oquf-61" target="xuQDjXI8OIOSAmr1Oquf-64">
          <mxGeometry relative="1" as="geometry" />
        </mxCell>
        <mxCell id="xuQDjXI8OIOSAmr1Oquf-61" value="API processa a mensagem" style="rounded=0;whiteSpace=wrap;html=1;" vertex="1" parent="xuQDjXI8OIOSAmr1Oquf-51">
          <mxGeometry x="50" y="70" width="120" height="60" as="geometry" />
        </mxCell>
        <mxCell id="xuQDjXI8OIOSAmr1Oquf-62" value="Envia resposta estática com base no que o usuário perguntou" style="rounded=0;whiteSpace=wrap;html=1;" vertex="1" parent="xuQDjXI8OIOSAmr1Oquf-51">
          <mxGeometry x="250" y="30" width="120" height="60" as="geometry" />
        </mxCell>
        <mxCell id="xuQDjXI8OIOSAmr1Oquf-70" style="edgeStyle=orthogonalEdgeStyle;rounded=0;orthogonalLoop=1;jettySize=auto;html=1;" edge="1" parent="xuQDjXI8OIOSAmr1Oquf-51" source="xuQDjXI8OIOSAmr1Oquf-64" target="xuQDjXI8OIOSAmr1Oquf-69">
          <mxGeometry relative="1" as="geometry" />
        </mxCell>
        <mxCell id="xuQDjXI8OIOSAmr1Oquf-64" value="Realiza Busca Semântica no Chroma Database" style="rounded=0;whiteSpace=wrap;html=1;" vertex="1" parent="xuQDjXI8OIOSAmr1Oquf-51">
          <mxGeometry x="250" y="110" width="120" height="60" as="geometry" />
        </mxCell>
        <mxCell id="xuQDjXI8OIOSAmr1Oquf-72" style="edgeStyle=orthogonalEdgeStyle;rounded=0;orthogonalLoop=1;jettySize=auto;html=1;" edge="1" parent="xuQDjXI8OIOSAmr1Oquf-51" source="xuQDjXI8OIOSAmr1Oquf-69" target="xuQDjXI8OIOSAmr1Oquf-71">
          <mxGeometry relative="1" as="geometry" />
        </mxCell>
        <mxCell id="xuQDjXI8OIOSAmr1Oquf-79" style="edgeStyle=orthogonalEdgeStyle;rounded=0;orthogonalLoop=1;jettySize=auto;html=1;entryX=0;entryY=0.5;entryDx=0;entryDy=0;" edge="1" parent="xuQDjXI8OIOSAmr1Oquf-51" source="xuQDjXI8OIOSAmr1Oquf-69" target="xuQDjXI8OIOSAmr1Oquf-78">
          <mxGeometry relative="1" as="geometry" />
        </mxCell>
        <mxCell id="xuQDjXI8OIOSAmr1Oquf-69" value="Há resultados com relevância &amp;gt; 70%?" style="rhombus;whiteSpace=wrap;html=1;" vertex="1" parent="xuQDjXI8OIOSAmr1Oquf-51">
          <mxGeometry x="440" y="20" width="100" height="90" as="geometry" />
        </mxCell>
        <mxCell id="xuQDjXI8OIOSAmr1Oquf-71" value="Envia para a API do telegram: &quot;Desculpe, não sei a resposta para isso&quot;" style="rounded=0;whiteSpace=wrap;html=1;" vertex="1" parent="xuQDjXI8OIOSAmr1Oquf-51">
          <mxGeometry x="600" y="35" width="130" height="60" as="geometry" />
        </mxCell>
        <mxCell id="xuQDjXI8OIOSAmr1Oquf-82" style="edgeStyle=orthogonalEdgeStyle;rounded=0;orthogonalLoop=1;jettySize=auto;html=1;entryX=0;entryY=0.5;entryDx=0;entryDy=0;" edge="1" parent="xuQDjXI8OIOSAmr1Oquf-51" source="xuQDjXI8OIOSAmr1Oquf-78" target="xuQDjXI8OIOSAmr1Oquf-81">
          <mxGeometry relative="1" as="geometry" />
        </mxCell>
        <mxCell id="xuQDjXI8OIOSAmr1Oquf-78" value="Gera o PROMPT com base nos resultados" style="rounded=0;whiteSpace=wrap;html=1;" vertex="1" parent="xuQDjXI8OIOSAmr1Oquf-51">
          <mxGeometry x="540" y="130" width="120" height="60" as="geometry" />
        </mxCell>
        <mxCell id="xuQDjXI8OIOSAmr1Oquf-80" value="Sim" style="text;html=1;align=center;verticalAlign=middle;resizable=0;points=[];autosize=1;strokeColor=none;fillColor=none;" vertex="1" parent="xuQDjXI8OIOSAmr1Oquf-51">
          <mxGeometry x="490" y="118" width="40" height="30" as="geometry" />
        </mxCell>
        <mxCell id="xuQDjXI8OIOSAmr1Oquf-81" value="Envia o PROMPT para o Gemini" style="rounded=0;whiteSpace=wrap;html=1;" vertex="1" parent="xuQDjXI8OIOSAmr1Oquf-51">
          <mxGeometry x="710" y="130" width="120" height="60" as="geometry" />
        </mxCell>
        <mxCell id="xuQDjXI8OIOSAmr1Oquf-85" value="API local envia a resposta para a API do Telegram" style="rounded=0;whiteSpace=wrap;html=1;" vertex="1" parent="xuQDjXI8OIOSAmr1Oquf-51">
          <mxGeometry x="890" y="35" width="120" height="60" as="geometry" />
        </mxCell>
        <mxCell id="xuQDjXI8OIOSAmr1Oquf-73" value="Não" style="text;html=1;align=center;verticalAlign=middle;resizable=0;points=[];autosize=1;strokeColor=none;fillColor=none;" vertex="1" parent="1">
          <mxGeometry x="570" y="558" width="50" height="30" as="geometry" />
        </mxCell>
        <mxCell id="xuQDjXI8OIOSAmr1Oquf-75" style="edgeStyle=orthogonalEdgeStyle;rounded=0;orthogonalLoop=1;jettySize=auto;html=1;entryX=0.5;entryY=1;entryDx=0;entryDy=0;" edge="1" parent="1" source="xuQDjXI8OIOSAmr1Oquf-71" target="xuQDjXI8OIOSAmr1Oquf-74">
          <mxGeometry relative="1" as="geometry" />
        </mxCell>
        <mxCell id="xuQDjXI8OIOSAmr1Oquf-77" style="edgeStyle=orthogonalEdgeStyle;rounded=0;orthogonalLoop=1;jettySize=auto;html=1;entryX=0.5;entryY=1;entryDx=0;entryDy=0;" edge="1" parent="1" source="xuQDjXI8OIOSAmr1Oquf-74" target="xuQDjXI8OIOSAmr1Oquf-76">
          <mxGeometry relative="1" as="geometry" />
        </mxCell>
        <mxCell id="xuQDjXI8OIOSAmr1Oquf-84" style="edgeStyle=orthogonalEdgeStyle;rounded=0;orthogonalLoop=1;jettySize=auto;html=1;entryX=0.5;entryY=1;entryDx=0;entryDy=0;" edge="1" parent="1" source="xuQDjXI8OIOSAmr1Oquf-81" target="xuQDjXI8OIOSAmr1Oquf-83">
          <mxGeometry relative="1" as="geometry" />
        </mxCell>
        <mxCell id="xuQDjXI8OIOSAmr1Oquf-86" style="edgeStyle=orthogonalEdgeStyle;rounded=0;orthogonalLoop=1;jettySize=auto;html=1;entryX=0.5;entryY=0;entryDx=0;entryDy=0;" edge="1" parent="1" source="xuQDjXI8OIOSAmr1Oquf-83" target="xuQDjXI8OIOSAmr1Oquf-85">
          <mxGeometry relative="1" as="geometry">
            <Array as="points">
              <mxPoint x="975" y="420" />
            </Array>
          </mxGeometry>
        </mxCell>
        <mxCell id="xuQDjXI8OIOSAmr1Oquf-87" style="edgeStyle=orthogonalEdgeStyle;rounded=0;orthogonalLoop=1;jettySize=auto;html=1;entryX=1;entryY=0.5;entryDx=0;entryDy=0;" edge="1" parent="1" source="xuQDjXI8OIOSAmr1Oquf-85" target="xuQDjXI8OIOSAmr1Oquf-74">
          <mxGeometry relative="1" as="geometry">
            <Array as="points">
              <mxPoint x="775" y="585" />
              <mxPoint x="775" y="420" />
            </Array>
          </mxGeometry>
        </mxCell>
      </root>
    </mxGraphModel>
  </diagram>
</mxfile>
